<svg version="1.2" xmlns="http://www.w3.org/2000/svg" viewBox="0 0 1500 1000" width="1500" height="1000">
	<title>9658551</title>
	<defs>
		<linearGradient id="g1" x2="1" gradientUnits="userSpaceOnUse" gradientTransform="matrix(0,941.997,-1412.996,0,1083.333,46.716)">
			<stop offset="0" stop-color="#24003d"/>
			<stop offset="1" stop-color="#2a1159"/>
		</linearGradient>
		<clipPath clipPathUnits="userSpaceOnUse" id="cp1">
			<path d="m1500 0h-1500v1000h1500z"/>
		</clipPath>
		<linearGradient id="g2" x2="1" gradientUnits="userSpaceOnUse" gradientTransform="matrix(886.933,-1044.999,412.477,350.085,-262.553,121.122)">
			<stop offset="0" stop-color="#993e8a" stop-opacity="1"/>
			<stop offset="1" stop-color="#608fff" stop-opacity="0"/>
		</linearGradient>
		<linearGradient id="g3" x2="1" gradientUnits="userSpaceOnUse" gradientTransform="matrix(-928.072,638.829,-186.671,-271.191,1059.59,164.653)">
			<stop offset="0" stop-color="#993e8a" stop-opacity="1"/>
			<stop offset="1" stop-color="#608fff" stop-opacity="0"/>
		</linearGradient>
		<linearGradient id="g4" x2="1" gradientUnits="userSpaceOnUse" gradientTransform="matrix(-374.62,593.788,-512.263,-323.186,551.117,716.719)">
			<stop offset="0" stop-color="#993e8a" stop-opacity="1"/>
			<stop offset="1" stop-color="#608fff" stop-opacity="0"/>
		</linearGradient>
		<linearGradient id="g5" x2="1" gradientUnits="userSpaceOnUse" gradientTransform="matrix(-251.919,-978.043,1423.409,-366.635,701.96,1570.635)">
			<stop offset="0" stop-color="#993e8a" stop-opacity="1"/>
			<stop offset="1" stop-color="#608fff" stop-opacity="0"/>
		</linearGradient>
		<linearGradient id="g6" x2="1" gradientUnits="userSpaceOnUse" gradientTransform="matrix(-709.173,-617.993,849.982,-975.39,710.43,614.326)">
			<stop offset="0" stop-color="#993e8a" stop-opacity="1"/>
			<stop offset="1" stop-color="#608fff" stop-opacity="0"/>
		</linearGradient>
		<linearGradient id="g7" x2="1" gradientUnits="userSpaceOnUse" gradientTransform="matrix(-23.283,22.753,-27.484,-28.123,984.175,661.541)">
			<stop offset="0" stop-color="#608fff"/>
			<stop offset="1" stop-color="#ffc64e"/>
		</linearGradient>
		<linearGradient id="g8" x2="1" gradientUnits="userSpaceOnUse" gradientTransform="matrix(-9.918,8.442,-10.197,-11.98,975.742,612.325)">
			<stop offset="0" stop-color="#608fff"/>
			<stop offset="1" stop-color="#ffc64e"/>
		</linearGradient>
		<linearGradient id="g9" x2="1" gradientUnits="userSpaceOnUse" gradientTransform="matrix(-7.602,8.935,-10.792,-9.183,1053.768,650.525)">
			<stop offset="0" stop-color="#608fff"/>
			<stop offset="1" stop-color="#ffc64e"/>
		</linearGradient>
		<linearGradient id="g10" x2="1" gradientUnits="userSpaceOnUse" gradientTransform="matrix(-6.846,27.892,-27.88,-6.843,1023.405,37.716)">
			<stop offset="0" stop-color="#e28fff"/>
			<stop offset="1" stop-color="#ffc971"/>
		</linearGradient>
		<linearGradient id="g11" x2="1" gradientUnits="userSpaceOnUse" gradientTransform="matrix(-38.45,51.605,-51.584,-38.434,1481.606,428.049)">
			<stop offset="0" stop-color="#e28fff"/>
			<stop offset="1" stop-color="#ffc971"/>
		</linearGradient>
		<linearGradient id="g12" x2="1" gradientUnits="userSpaceOnUse" gradientTransform="matrix(14.967,-52.747,52.725,14.96,449.776,940.041)">
			<stop offset="0" stop-color="#e28fff"/>
			<stop offset="1" stop-color="#ffc971"/>
		</linearGradient>
		<linearGradient id="g13" x2="1" gradientUnits="userSpaceOnUse" gradientTransform="matrix(-17.87,-19.126,19.118,-17.863,656.02,619.25)">
			<stop offset="0" stop-color="#5720d9"/>
			<stop offset="1" stop-color="#e51bb6"/>
		</linearGradient>
		<linearGradient id="g14" x2="1" gradientUnits="userSpaceOnUse" gradientTransform="matrix(-43.363,-10.626,10.622,-43.345,739.003,578.759)">
			<stop offset="0" stop-color="#5620fe"/>
			<stop offset="1" stop-color="#210784"/>
		</linearGradient>
		<linearGradient id="g15" x2="1" gradientUnits="userSpaceOnUse" gradientTransform="matrix(137.698,44.947,-44.947,137.697,131.39,772.7)">
			<stop offset="0" stop-color="#5720d9"/>
			<stop offset="1" stop-color="#e51bb6"/>
		</linearGradient>
		<linearGradient id="g16" x2="1" gradientUnits="userSpaceOnUse" gradientTransform="matrix(47.658,80.812,-80.812,47.658,1037.842,789.724)">
			<stop offset="0" stop-color="#5620fe"/>
			<stop offset="1" stop-color="#210784"/>
		</linearGradient>
		<linearGradient id="g17" x2="1" gradientUnits="userSpaceOnUse" gradientTransform="matrix(7.635,-27.016,27.016,7.635,298.155,84.979)">
			<stop offset="0" stop-color="#ffaaf8"/>
			<stop offset="1" stop-color="#ffde7f"/>
		</linearGradient>
		<linearGradient id="g18" x2="1" gradientUnits="userSpaceOnUse" gradientTransform="matrix(7.635,-27.017,27.016,7.635,1398.972,550.325)">
			<stop offset="0" stop-color="#ffaaf8"/>
			<stop offset="1" stop-color="#ffde7f"/>
		</linearGradient>
		<linearGradient id="g19" x2="1" gradientUnits="userSpaceOnUse" gradientTransform="matrix(7.635,-27.017,27.016,7.635,876.451,373.772)">
			<stop offset="0" stop-color="#ffaaf8"/>
			<stop offset="1" stop-color="#ffde7f"/>
		</linearGradient>
		<linearGradient id="g20" x2="1" gradientUnits="userSpaceOnUse" gradientTransform="matrix(7.635,-27.017,27.016,7.635,497.818,798.887)">
			<stop offset="0" stop-color="#ffaaf8"/>
			<stop offset="1" stop-color="#ffde7f"/>
		</linearGradient>
		<linearGradient id="g21" x2="1" gradientUnits="userSpaceOnUse" gradientTransform="matrix(7.635,-27.017,27.016,7.635,37.754,338.048)">
			<stop offset="0" stop-color="#ffaaf8"/>
			<stop offset="1" stop-color="#ffde7f"/>
		</linearGradient>
	</defs>
	<style>
		.s0 { fill: url(#g1) } 
		.s1 { mix-blend-mode: soft-light;fill: url(#g2) } 
		.s2 { mix-blend-mode: soft-light;fill: url(#g3) } 
		.s3 { mix-blend-mode: soft-light;fill: url(#g4) } 
		.s4 { mix-blend-mode: soft-light;fill: url(#g5) } 
		.s5 { mix-blend-mode: soft-light;fill: url(#g6) } 
		.s6 { mix-blend-mode: soft-light;fill: #ffffff } 
		.s7 { fill: url(#g7) } 
		.s8 { fill: url(#g8) } 
		.s9 { fill: url(#g9) } 
		.s10 { fill: url(#g10) } 
		.s11 { opacity: .5;mix-blend-mode: soft-light;fill: #ffffff } 
		.s12 { fill: url(#g11) } 
		.s13 { fill: url(#g12) } 
		.s14 { fill: url(#g13) } 
		.s15 { opacity: .3;mix-blend-mode: multiply;fill: #351a65 } 
		.s16 { fill: url(#g14) } 
		.s17 { fill: url(#g15) } 
		.s18 { fill: url(#g16) } 
		.s19 { fill: url(#g17) } 
		.s20 { fill: url(#g18) } 
		.s21 { fill: url(#g19) } 
		.s22 { fill: url(#g20) } 
		.s23 { fill: url(#g21) } 
		.s24 { fill: #ffffff } 
	</style>
	<g id="BACKGROUND">
		<path id="&lt;Path&gt;" class="s0" d="m1500 0h-1500v1000h1500z"/>
	</g>
	<g id="OBJECTS">
		<g id="&lt;Clip Group&gt;" clip-path="url(#cp1)">
			<path id="&lt;Path&gt;" class="s1" d="m212.2 1394.2c-12.7-192.7 121.5-360.2 282.7-441.4 161.2-81.2 346.8-95.4 526.7-117.9 179.8-22.5 365.6-57.9 506.7-172.1 144.8-117.3 223.8-302.6 285.6-485.7 61.7-183.1 113-374.7 220.5-530.5 96.7-140.2 237.1-245 395.8-295.7 68.9-22 145.6-33.6 214.8-4.6 54.1 22.7 97.8 67.8 136.3 114.6 86.9 105.8 157.9 231.5 175.7 367.6 17.7 136-26 282.6-130.6 357-86.2 61.3-197.9 66.6-302.3 83.3-174 27.8-343.8 94.1-475 213.1-130.3 118.2-215.8 280.6-307.2 434.6-134.1 226.1-285.8 440-454.1 638.1-76.1 89.6-157.7 177.6-260.8 230.4-108.4 55.6-233.1 68.6-354.9 80.7-121.5 12.1-261.6 17.5-351.2-76"/>
			<path id="&lt;Path&gt;" class="s2" d="m863.8-161.5c-4 89.8-44.1 175.6-101.9 244.5-57.8 68.8-132.5 121.8-211.6 164.5-81.6 44.2-170.1 78.6-262.5 86.7-144.2 12.6-286.1-38.8-430.6-46.5-11.2-0.6-24.7 0.3-30.3 10-7.3 12.8 5.7 27.7 17.9 36.2 82.4 57.7 184.4 84 285 83.9 100.7 0 200.1-25.5 293.1-64 306.2-126.9 545.9-404 627.4-725.3"/>
			<path id="&lt;Path&gt;" class="s3" d="m-381.5 856.3c146.6 18.2 293.2-29.1 429.6-85.9 50.7-21.1 101.8-43.9 156.3-50.4 54.6-6.6 114.5 5.8 152.1 45.8 11 11.6 19.9 25.6 23.6 41.2 6.6 27.7-3.8 56.5-15.8 82.3-55.7 120.2-150.1 222.1-265.7 286.7-115.6 64.6-251.8 91.6-383.3 76"/>
			<path id="&lt;Path&gt;" class="s4" d="m1785.6 315.4c-13.9-18.9-39.6-25.8-62.9-23.2-23.3 2.7-44.7 13.4-65.5 24.1-122.4 62.9-246.1 137-319.2 253.6-43.6 69.7-66.3 150.2-103.1 223.7-53.9 107.8-138.6 200-241.5 262.7-79.2 48.2-168.8 79.5-242 136.3-73.2 56.9-129.1 151.7-102.6 240.6 8.5 28.2 27.7 56.1 56.5 62.7 37.1 8.5 71-20.2 101.9-42.4 54-38.7 117.2-62 179.6-84.8 97.8-35.7 199.7-72 303.2-61.6 61.3 6.2 120.1 28.6 181.5 33 157 11.5 300.3-96.4 392-224.4 162.6-226.6 206.6-537.8 98.3-794.8-27.3-64.9-67-129.3-129.9-160.9"/>
			<path id="&lt;Path&gt;" class="s5" d="m-201.4 158.6c43.7-44.9 116.3-41.8 177.3-27.6 52.4 12.2 103.5 30.1 152 53.5 45.5 21.9 89.3 48.8 138.1 62.2 92.5 25.4 198.1-4.1 264.1-73.8 31-32.9 53.2-72.9 77.1-111.2 107.4-172.6 268.8-325.2 468.8-361.8q-327.6-16.6-655.3-33.2c-167.6-8.5-341.2-16.2-497.7 44.9"/>
			<g id="&lt;Group&gt;">
			</g>
		</g>
		<g id="&lt;Group&gt;">
		</g>
		<g id="&lt;Group&gt;">
		</g>
		<g id="&lt;Group&gt;">
			<g id="&lt;Group&gt;">
				<path id="&lt;Path&gt;" class="s6" d="m975.3 670.7c-4.2 3-5.8 6.3-7 10.4-0.2 0.9-0.4 2-0.3 3 0.1 1.8 1.2 3.3 2.3 4.7q2 2.7 4.5 5c0.7 0.7 1.5 1.4 2.4 1.8 1.9 0.9 4.2 0.7 6.2-0.2 2.5-1.1 4.9-2.2 7.7-4.9 0 0 167.5-150.9 167.6-152.7 0.1-1.8-183.4 132.9-183.4 132.9z"/>
				<path id="&lt;Path&gt;" class="s6" d="m992.3 691.1c-1.3 3.3-4.4 5.3-7.5 7.1-0.6 0.3-1.3 0.7-2 0.7-1 0.1-1.9-0.3-2.9-0.6-2.4-0.7-5.2-0.5-7.1-2.2-1.1-0.9-1.7-2.3-2.5-3.4-1.2-1.7-3-3-3.6-5-0.3-0.9-0.2-1.9-0.1-2.9 0.3-3.4 1.1-6.7 2.3-9.9 0.7-1.7 1.5-3.5 3.1-4.6 1.4-0.9 3.1-1 4.8-1.1 1.7-0.1 3.5-0.1 5.1 0.4 3.6 1.1 8.4 5.5 9.6 9.2 1.1 3.7 2.3 8.7 0.8 12.3z"/>
				<path id="&lt;Path&gt;" class="s7" d="m972 678.6c-0.4 0.8-0.5 1.8-0.4 2.8 0.7 6.1 8 13.3 14 8.4 1.3-1 1.8-2.6 1.8-4.2q0-0.8-0.1-1.5c-0.4-2.4-2.9-8.2-4.9-9.6-2.9-2-5.4 0-8.5 1.7-0.9 0.5-1.6 1.3-1.9 2.4z"/>
			</g>
			<path id="&lt;Path&gt;" class="s6" d="m972 678.6c-0.4 0.8-0.5 1.8-0.4 2.8 0.7 6.1 8 13.3 14 8.4 1.3-1 1.8-2.6 1.8-4.2-0.9 0.7-1.8 1.2-3 1.4-1.1 0.2-2.3 0-3.4-0.3-3.9-1.3-6.7-4.7-9-8.1z"/>
		</g>
		<g id="&lt;Group&gt;">
			<g id="&lt;Group&gt;">
				<path id="&lt;Path&gt;" class="s6" d="m971.9 615.7c-1.7 1.1-2.4 2.4-3 4-0.2 0.4-0.3 0.8-0.2 1.2 0 0.7 0.3 1.3 0.7 1.9q0.8 1.2 1.7 2.1c0.3 0.3 0.6 0.6 0.9 0.8 0.8 0.4 1.7 0.4 2.5 0.1 1.1-0.4 2-0.7 3.2-1.7 0 0 224.4-157.4 224.5-158.1 0.1-0.7-230.3 149.7-230.3 149.7z"/>
				<path id="&lt;Path&gt;" class="s6" d="m978.2 624.4c-0.6 1.2-1.9 2-3.2 2.6-0.3 0.1-0.5 0.2-0.8 0.2-0.4 0-0.8-0.2-1.2-0.3-0.9-0.4-2-0.4-2.8-1.1-0.4-0.4-0.6-0.9-0.9-1.4-0.4-0.7-1.1-1.3-1.3-2.1 0-0.4 0-0.8 0.1-1.2q0.3-2 1.2-3.9c0.3-0.6 0.7-1.3 1.3-1.7 0.6-0.3 1.3-0.3 2-0.3 0.7 0 1.4 0 2 0.3 1.4 0.5 3.2 2.4 3.6 3.9 0.3 1.5 0.7 3.6 0 5z"/>
				<path id="&lt;Path&gt;" class="s8" d="m970.4 618.8c-0.2 0.3-0.2 0.7-0.2 1.1 0.1 2.5 2.8 5.5 5.3 3.8 0.6-0.4 0.8-1 0.9-1.7q0-0.3 0-0.6c-0.1-0.9-1-3.3-1.7-4-1.1-0.8-2.2-0.1-3.5 0.5-0.4 0.2-0.6 0.5-0.8 0.9z"/>
			</g>
			<path id="&lt;Path&gt;" class="s6" d="m970.4 618.8c-0.2 0.3-0.2 0.7-0.2 1.1 0.1 2.5 2.8 5.5 5.3 3.8 0.6-0.4 0.8-1 0.9-1.7-0.4 0.3-0.8 0.4-1.3 0.5-0.4 0-0.9-0.1-1.3-0.2-1.5-0.6-2.5-2.1-3.4-3.5z"/>
		</g>
		<g id="&lt;Group&gt;">
			<g id="&lt;Group&gt;">
				<path id="&lt;Path&gt;" class="s6" d="m1050.9 654.1c-1.4 1.2-1.9 2.5-2.2 4 0 0.3-0.1 0.7 0 1.1 0.1 0.6 0.5 1.1 1 1.6q0.8 0.9 1.8 1.6c0.2 0.2 0.6 0.5 0.9 0.6 0.7 0.2 1.5 0.1 2.2-0.3 0.9-0.5 1.7-0.9 2.6-2 0 0 176.9-172.2 176.8-172.9 0-0.7-183.1 166.3-183.1 166.3z"/>
				<path id="&lt;Path&gt;" class="s6" d="m1057.7 660.9c-0.4 1.2-1.5 2-2.5 2.7-0.2 0.2-0.4 0.3-0.7 0.4-0.3 0.1-0.7-0.1-1-0.1-0.9-0.2-1.9-0.1-2.7-0.6-0.4-0.3-0.6-0.8-1-1.1-0.5-0.6-1.2-1-1.4-1.7-0.2-0.3-0.2-0.7-0.2-1q0-1.9 0.5-3.7c0.2-0.6 0.5-1.3 1-1.7 0.5-0.4 1.1-0.5 1.7-0.6 0.6-0.1 1.2-0.1 1.8 0 1.4 0.3 3.2 1.7 3.8 3 0.5 1.3 1.1 3 0.7 4.4z"/>
				<path id="&lt;Path&gt;" class="s9" d="m1049.9 657q-0.1 0.5 0 1.1c0.5 2.2 3.3 4.5 5.3 2.5 0.4-0.4 0.6-1 0.5-1.6q0-0.2-0.1-0.5c-0.2-0.8-1.3-2.8-2-3.3-1.1-0.6-2 0.2-3 0.9-0.4 0.2-0.6 0.6-0.7 0.9z"/>
			</g>
			<path id="&lt;Path&gt;" class="s6" d="m1049.9 657q-0.1 0.5 0 1.1c0.5 2.2 3.3 4.5 5.3 2.5 0.4-0.4 0.6-1 0.5-1.6q-0.4 0.5-1 0.6c-0.4 0.1-0.8 0.1-1.2 0-1.5-0.3-2.6-1.4-3.6-2.6z"/>
		</g>
		<g id="&lt;Group&gt;">
			<path id="&lt;Path&gt;" class="s10" d="m1012.7 38.1c4.1 5.2 3.8 12.6-0.5 17.4q-0.7 0.8-1.7 1.6c-5.8 4.6-14.3 3.6-18.9-2.2-3.9-4.9-3.8-11.6-0.3-16.4q1-1.4 2.5-2.5c5.8-4.7 14.3-3.7 18.9 2.1z"/>
			<path id="&lt;Path&gt;" class="s11" d="m1012.7 38.1c4.1 5.2 3.8 12.6-0.5 17.4-1-2.7-2-5.4-3.6-7.8-3.9-5.6-10.4-8.6-17.3-9.2q1-1.4 2.5-2.5c5.8-4.7 14.3-3.7 18.9 2.1z"/>
		</g>
		<g id="&lt;Group&gt;">
			<path id="&lt;Path&gt;" class="s12" d="m1459.1 419.6c4 14.3-3.1 29.2-16.1 35.3-1.5 0.8-3.1 1.4-4.8 1.9-16.1 4.4-32.7-5-37.2-21-3.7-13.4 2.2-27.3 13.7-34q3.3-2.1 7.3-3.2c16-4.5 32.7 4.9 37.1 21z"/>
			<path id="&lt;Path&gt;" class="s11" d="m1459.1 431.6c4 14.3-3.1 29.2-16.1 35.3 0.3-6.4 0.5-12.8-0.8-19.1-3-14.9-13.9-26.9-27.5-34q3.3-2.1 7.3-3.2c16-4.5 32.7 4.9 37.1 21z"/>
		</g>
		<g id="&lt;Group&gt;">
			<path id="&lt;Path&gt;" class="s13" d="m470.2 940c-7.5-10.2-6.3-24.2 2.2-33.1 0.9-1 2-2 3.2-2.9 11.5-8.4 27.6-6 36 5.4 7.1 9.6 6.5 22.4-0.6 31.3q-2 2.6-4.8 4.7c-11.4 8.4-27.5 6-36-5.4z"/>
			<path id="&lt;Path&gt;" class="s11" d="m470.2 940c-7.5-10.2-6.3-24.2 2.2-33.1 1.7 5.3 3.5 10.4 6.4 15.1 6.9 10.9 19.2 17.1 32.2 18.7q-2 2.6-4.8 4.7c-11.4 8.4-27.5 6-36-5.4z"/>
		</g>
		<g id="&lt;Group&gt;">
			<path id="&lt;Path&gt;" class="s14" d="m661 610.9c-6 0.5-11.4-3.4-12.9-9.1q-0.3-0.9-0.4-2c-0.7-6.8 4.3-12.7 11.1-13.4 5.6-0.5 10.7 2.9 12.6 8q0.6 1.5 0.7 3.1c0.7 6.8-4.3 12.7-11.1 13.4z"/>
			<path id="&lt;Path&gt;" class="s15" d="m661 610.9c-6 0.5-11.4-3.4-12.9-9.1 2.5 0.7 5.1 1.2 7.7 1.1 6.2-0.1 11.7-3.6 15.6-8.5q0.6 1.5 0.7 3.1c0.7 6.8-4.3 12.7-11.1 13.4z"/>
		</g>
		<g id="&lt;Group&gt;">
			<path id="&lt;Path&gt;" class="s16" d="m738.3 562.1c-8 6.4-19.5 5.9-26.9-0.8q-1.3-1.1-2.5-2.5c-7.2-9.1-5.7-22.3 3.4-29.5 7.5-6 18-5.9 25.4-0.4q2.2 1.6 4 3.8c7.2 9 5.7 22.2-3.4 29.4z"/>
			<path id="&lt;Path&gt;" class="s15" d="m738.3 562.1c-8 6.4-19.5 5.9-26.9-0.8 4.2-1.5 8.4-3.1 12-5.6 8.7-6 13.4-16.2 14.3-26.8q2.2 1.6 4 3.8c7.2 9 5.7 22.2-3.4 29.4z"/>
		</g>
		<g id="&lt;Group&gt;">
			<path id="&lt;Compound Path&gt;" fill-rule="evenodd" class="s6" d="m312.9 874.9c-0.7 15-4 30-10 44.3q-4 9.5-9.6 18.5-1.2 2-2.6 4-4.8 7.1-10.3 13.4c-7.6 8.7-16.2 16.1-25.4 22.3-17.6 11.8-37.6 19-58.3 21.3-18.9 2.1-38.3 0.1-56.8-6.2-10.6-3.6-21-8.7-30.7-15.3-10.3-6.9-19.3-15-26.9-24-4.9-5.7-9.2-11.9-13-18.3-6.4-11.1-11.2-22.9-14.2-35.3-3.2-13.1-4.4-26.7-3.4-40.2 1.5-22.1 8.7-44.1 21.9-63.7q0.1-0.2 0.3-0.3c7.3-10.9 16-20.3 25.6-28.2 24.1-19.6 54.3-29.8 84.7-29.3 6.9 0.1 13.9 0.7 20.7 1.9q4.7 0.8 9.3 2c14.3 3.6 28.1 9.7 41 18.3q1.1 0.8 2.2 1.5c12 8.5 22.2 18.6 30.5 29.9 8.4 11.5 14.7 24.2 18.9 37.6 2.6 7.9 4.3 16 5.3 24.3 0.8 7.1 1.1 14.3 0.8 21.5zm-38.6-17.1c-0.7-5.8-1.9-11.6-3.7-17.2-3-9.5-7.5-18.5-13.4-26.6-5.9-8.1-13.1-15.3-21.7-21.3q-0.7-0.5-1.5-1c-9.2-6.2-19-10.5-29.1-13q-3.3-0.9-6.6-1.4-7.3-1.3-14.7-1.4c-21.6-0.3-43 6.9-60.1 20.8-6.8 5.6-13 12.3-18.2 20q0 0.1-0.1 0.2c-9.4 13.9-14.5 29.5-15.6 45.2-0.7 9.6 0.2 19.2 2.4 28.5 2.1 8.8 5.5 17.2 10.1 25.1q4 6.8 9.2 13c5.4 6.3 11.8 12.1 19.1 17 6.9 4.6 14.3 8.2 21.8 10.8 13.1 4.5 26.9 5.9 40.3 4.4 14.6-1.6 28.9-6.8 41.3-15.1 6.6-4.4 12.7-9.7 18.1-15.8q3.9-4.5 7.3-9.5 0.9-1.4 1.8-2.9 4-6.4 6.8-13.1c4.3-10.2 6.6-20.8 7.1-31.4q0.3-7.7-0.6-15.3z"/>
			<path id="&lt;Compound Path&gt;" fill-rule="evenodd" class="s6" d="m295.6 876.9c-0.6 12.7-3.4 25.3-8.4 37.4q-3.4 8.1-8.1 15.7-1.1 1.7-2.2 3.4-4.1 6-8.7 11.3c-6.4 7.3-13.7 13.6-21.5 18.9-14.9 9.9-31.8 16-49.3 17.9-15.9 1.8-32.3 0.2-47.9-5.2-9-3.1-17.8-7.3-26-12.9-8.7-5.8-16.3-12.7-22.7-20.3-4.1-4.8-7.8-10-11-15.5-5.4-9.3-9.5-19.4-12-29.8-2.7-11.1-3.7-22.5-2.9-34 1.3-18.6 7.4-37.2 18.6-53.8q0.1-0.2 0.1-0.3c6.2-9.1 13.6-17.1 21.7-23.7 20.4-16.6 45.9-25.2 71.6-24.9 5.8 0.1 11.7 0.7 17.5 1.7q4 0.7 7.9 1.7c12 3 23.7 8.1 34.6 15.5q0.9 0.6 1.8 1.2c10.2 7.2 18.8 15.8 25.8 25.3 7.1 9.7 12.5 20.5 16 31.7 2.1 6.7 3.6 13.6 4.5 20.6 0.7 6 0.9 12 0.6 18.1zm-32.6-14.4q-0.8-7.4-3.1-14.6c-2.5-7.9-6.3-15.6-11.4-22.5-4.9-6.7-11-12.8-18.2-17.9q-0.7-0.4-1.4-0.9c-7.7-5.2-16-8.8-24.5-11q-2.8-0.7-5.6-1.2-6.2-1-12.4-1.1c-18.2-0.3-36.3 5.8-50.8 17.6-5.8 4.7-11 10.3-15.4 16.8q0 0.1-0.1 0.2c-7.9 11.8-12.2 25-13.1 38.2-0.6 8.1 0.1 16.3 2 24.1 1.8 7.4 4.7 14.5 8.5 21.2q3.4 5.8 7.8 11c4.6 5.3 10 10.2 16.1 14.3 5.9 4 12.1 7 18.5 9.2 11 3.8 22.7 5 34 3.7 12.4-1.4 24.4-5.7 34.9-12.7 5.6-3.8 10.7-8.2 15.3-13.4q3.3-3.8 6.1-8.1 0.8-1.1 1.6-2.4 3.3-5.4 5.7-11.1c3.6-8.5 5.6-17.5 6-26.5q0.3-6.5-0.5-12.9z"/>
			<path id="&lt;Compound Path&gt;" fill-rule="evenodd" class="s6" d="m292 866.5c-0.5 11.7-3.1 23.4-7.8 34.5q-3.1 7.4-7.4 14.5-1 1.5-2 3.1-3.8 5.5-8.1 10.4c-5.9 6.8-12.6 12.6-19.8 17.4-13.7 9.2-29.3 14.8-45.4 16.6-14.7 1.6-29.8 0.1-44.2-4.8-8.3-2.9-16.4-6.8-24-11.9-8-5.4-15-11.7-20.9-18.7-3.9-4.5-7.2-9.3-10.1-14.3-5.1-8.6-8.8-17.9-11.2-27.5-2.5-10.2-3.4-20.8-2.6-31.4 1.2-17.2 6.8-34.3 17.1-49.6q0.1-0.1 0.2-0.3c5.7-8.4 12.4-15.7 20-21.9 18.7-15.3 42.2-23.2 66-22.9q8.1 0.2 16.1 1.6 3.7 0.6 7.3 1.5c11.1 2.8 21.9 7.6 31.9 14.3q0.8 0.6 1.7 1.2c9.4 6.6 17.3 14.5 23.7 23.3 6.6 8.9 11.5 18.8 14.8 29.2 2 6.2 3.4 12.5 4.1 19 0.7 5.5 0.9 11.1 0.6 16.7zm-4.3-16.3c-0.7-6.2-2-12.3-3.9-18.3-3.2-10-8-19.5-14.3-28.1-6.1-8.5-13.8-16.1-22.9-22.5q-0.8-0.6-1.6-1.1c-9.7-6.5-20.1-11.1-30.7-13.8q-3.5-0.9-7-1.5-7.8-1.3-15.6-1.4c-22.8-0.4-45.5 7.3-63.6 22-7.2 5.9-13.8 13-19.3 21.1q0 0.1-0.1 0.3c-10 14.7-15.4 31.2-16.5 47.8-0.7 10.2 0.1 20.4 2.5 30.2 2.3 9.3 5.9 18.2 10.8 26.5q4.2 7.3 9.7 13.8c5.7 6.7 12.4 12.8 20.1 18 7.4 4.9 15.2 8.7 23.2 11.5 13.8 4.7 28.4 6.2 42.6 4.6 15.5-1.7 30.5-7.2 43.7-16 7-4.6 13.4-10.2 19.2-16.8q4.1-4.7 7.7-10 1-1.5 1.9-3 4.2-6.8 7.2-13.9c4.5-10.8 7-22 7.5-33.3 0.3-5.4 0.1-10.8-0.6-16.1z"/>
			<path id="&lt;Path&gt;" class="s17" d="m182 814.5q4.3 0.1 8.6 0.8 1.9 0.4 3.9 0.9c5.8 1.5 11.6 4 16.9 7.5q0.5 0.4 0.9 0.7c5 3.5 9.2 7.7 12.6 12.3 3.5 4.8 6.1 10.1 7.9 15.6q1.5 4.9 2.2 10 0.5 4.5 0.3 8.9c-0.3 6.2-1.7 12.5-4.2 18.4q-1.6 3.9-3.9 7.6-0.5 0.9-1.1 1.7-2 2.9-4.3 5.5c-3.1 3.6-6.7 6.7-10.5 9.3-7.3 4.9-15.6 7.8-24.1 8.8-7.8 0.9-15.9 0.1-23.5-2.6-4.4-1.5-8.7-3.6-12.7-6.3-4.3-2.9-8-6.2-11.2-9.9q-3-3.6-5.3-7.6c-2.7-4.6-4.7-9.5-5.9-14.6-1.4-5.4-1.8-11.1-1.4-16.7 0.6-9.1 3.6-18.2 9-26.3q0.1-0.1 0.1-0.2c3.1-4.5 6.7-8.4 10.7-11.6 9.9-8.1 22.4-12.4 35-12.2z"/>
		</g>
		<g id="&lt;Group&gt;">
			<g id="&lt;Group&gt;">
				<path id="&lt;Path&gt;" class="s6" d="m972.6 910c-13.9-10-24-25.4-26.8-43.5q-0.3-1.6-0.4-3.2c-4-36.2 22.2-68.9 58.5-72.8 7.7-0.9 15.3-0.3 22.4 1.4 6.4 1.5 12.5 4 18.1 7.2 17.4 10.2 30 28.3 32.3 49.9 4 36.3-22.3 68.9-58.5 72.8-16.8 1.9-32.8-2.8-45.6-11.8z"/>
				<path id="&lt;Path&gt;" class="s6" d="m981.5 897.6c-10.8-7.7-18.5-19.5-20.7-33.5q-0.2-1.2-0.3-2.4c-3.1-27.9 17.1-53.1 45-56.1 6-0.7 11.8-0.3 17.3 1.1 4.9 1.1 9.6 3 13.9 5.6 13.4 7.8 23.1 21.7 24.9 38.4 3.1 27.9-17.2 53-45.1 56-12.9 1.4-25.2-2.1-35-9.1z"/>
				<path id="&lt;Path&gt;" class="s6" d="m984.1 893.9c-9.8-7-16.8-17.8-18.8-30.5q-0.2-1.1-0.3-2.2c-2.8-25.4 15.6-48.3 41-51.1 5.4-0.6 10.7-0.2 15.7 1 4.5 1.1 8.8 2.8 12.7 5.1 12.2 7.1 21 19.8 22.7 35 2.8 25.4-15.7 48.2-41.1 51-11.7 1.3-23-2-31.9-8.3z"/>
				<path id="&lt;Path&gt;" class="s6" d="m984.1 893.9c-9.8-7-16.8-17.8-18.8-30.5q-0.2-1.1-0.3-2.2c-2.8-25.4 15.6-48.3 41-51.1 5.4-0.6 10.7-0.2 15.7 1 4.5 1.1 8.8 2.8 12.7 5.1 12.2 7.1 21 19.8 22.7 35 2.8 25.4-15.7 48.2-41.1 51-11.7 1.3-23-2-31.9-8.3z"/>
				<path id="&lt;Path&gt;" class="s18" d="m986.9 890c-8.7-6.3-15.1-16-16.8-27.3q-0.2-1-0.3-2c-2.5-22.8 14-43.3 36.7-45.8 4.9-0.5 9.6-0.2 14.1 0.9 4 1 7.8 2.5 11.4 4.6 10.9 6.4 18.8 17.7 20.3 31.3 2.5 22.8-14 43.2-36.8 45.7-10.5 1.2-20.6-1.8-28.6-7.4z"/>
				<path id="&lt;Path&gt;" class="s6" d="m1013.6 889.2c1.6 1.2 3.5 2.7 5.4 2 1.3-0.5 2-2 2.5-3.3 1.5-4 2.2-8.5-1.7-11.3-2.5-1.8-6.1-2.9-9-1.8-2.5 0.9-6.5 4.5-6.8 7.2-0.4 3.5 7.3 5.4 9.6 7.2z"/>
				<path id="&lt;Path&gt;" class="s6" d="m1036.3 867.7c7.3-5.7-4.6-13.6-10.7-8.4-7.2 6.1 4.8 13 10.7 8.4z"/>
				<path id="&lt;Path&gt;" class="s6" d="m994.4 825.9c-1.3 2.2-1.9 4.8-1.4 7.3 0.5 2.5 2.1 4.6 4 6.3 2.3 2.1 5.4 3.6 8.5 3.1 3.9-0.7 6.6-4.5 8-8.2 1.5-4.2 1.7-9.4-1.4-12.6-1.4-1.3-3.2-2.1-5.1-2.4-5.4-1-9.9 2-12.6 6.5z"/>
				<path id="&lt;Path&gt;" class="s6" d="m976.4 851.6c0.7 0.8 1.5 1.5 2.4 1.9 1.5 0.6 3.2 0.5 4.6-0.2 1.4-0.7 2.6-1.9 3.2-3.4 1.2-2.5 0.8-5.9-1.3-7.6-6.2-5.1-13.5 3.4-8.9 9.3z"/>
				<path id="&lt;Path&gt;" class="s6" d="m981.3 879.8c0.8 1.1 1.7 2.1 2.8 2.7 1.6 0.8 3.5 0.8 5.3 0.8 0.8-0.1 1.6-0.1 2.4-0.5 0.9-0.5 1.6-1.5 1.8-2.6 0.1-1-0.1-2.2-0.5-3.2-0.9-2.4-2.7-4.3-4.8-5.7-2.1-1.3-6.7-3.7-8.8-1.3-2.2 2.6 0.2 7.5 1.8 9.8z"/>
				<path id="&lt;Path&gt;" class="s15" d="m1032 820.4c-11.7 6.3-23 13.1-34 20.5-4.9 3.2-9.9 6.7-12.4 12-2.5 4.9-2.4 10.7-1.9 16.2 0.5 7 1.6 14 3.2 20.9-9.2-6.7-15.8-17.1-17.1-29.3-2.5-22.8 13.9-43.3 36.7-45.8 9.2-1 18 1.1 25.5 5.5z"/>
			</g>
			<path id="&lt;Path&gt;" class="s6" d="m402.7 268.2c-6.5-0.1-13.5 3.2-13.1 10.7 0.5 8.6 19.2 5.8 22.3 0.1 3.6-6.8-2.5-10.7-9.2-10.8z"/>
			<path id="&lt;Path&gt;" class="s6" d="m369.4 694.6c-2.6 2-4.6 4.6-6.6 7.3-1 1.5-2.2 3.1-2 4.9 0.1 1.2 0.7 2.2 1.4 3 2.7 3 7.5 3.7 11 1.7 3.4-1.9 6-7.2 5.2-11.1-0.8-3.9-5.1-8.7-9-5.8z"/>
		</g>
		<g id="&lt;Group&gt;">
			<path id="&lt;Path&gt;" class="s19" d="m304.4 75.6c0 0.6 5 1.1 11.4 1.1 0.1 6.5 0.6 11.5 1.2 11.5 0.6 0 1.1-5 1.1-11.5 6.4 0 11.5-0.5 11.5-1.1 0-0.6-5.1-1.1-11.5-1.1 0-6.5-0.5-11.5-1.1-11.5-0.6 0-1.1 5-1.2 11.5-6.4 0-11.4 0.5-11.4 1.1z"/>
			<path id="&lt;Path&gt;" class="s20" d="m1405.2 540.9c0 0.6 5 1.1 11.4 1.2 0.1 6.4 0.6 11.4 1.2 11.4 0.6 0 1.1-5 1.1-11.4 6.4-0.1 11.5-0.6 11.5-1.2 0-0.6-5.1-1-11.5-1.1 0-6.4-0.5-11.5-1.1-11.5-0.6 0-1.1 5.1-1.2 11.5-6.4 0.1-11.4 0.5-11.4 1.1z"/>
			<path id="&lt;Path&gt;" class="s21" d="m882.7 364.4c0 0.6 5 1.1 11.4 1.1 0.1 6.4 0.6 11.5 1.2 11.5 0.6 0 1-5.1 1.1-11.5 6.4 0 11.5-0.5 11.5-1.1 0-0.6-5.1-1.1-11.5-1.2-0.1-6.4-0.5-11.4-1.1-11.4-0.6 0-1.1 5-1.2 11.4-6.4 0.1-11.4 0.6-11.4 1.2z"/>
			<path id="&lt;Path&gt;" class="s22" d="m504 789.5c0 0.6 5.1 1.1 11.5 1.1 0 6.5 0.5 11.5 1.1 11.5 0.6 0 1.1-5 1.2-11.5 6.4 0 11.4-0.5 11.4-1.1 0-0.6-5-1.1-11.4-1.1-0.1-6.5-0.6-11.5-1.2-11.5-0.6 0-1.1 5-1.1 11.5-6.4 0-11.5 0.5-11.5 1.1z"/>
			<path id="&lt;Path&gt;" class="s23" d="m44 328.7c0 0.6 5 1 11.4 1.1 0.1 6.4 0.6 11.5 1.2 11.5 0.6 0 1.1-5.1 1.1-11.5 6.4-0.1 11.5-0.5 11.5-1.1 0-0.6-5.1-1.1-11.5-1.2 0-6.4-0.5-11.4-1.1-11.4-0.6 0-1.1 5-1.2 11.4-6.4 0.1-11.4 0.6-11.4 1.2z"/>
			<path id="&lt;Path&gt;" class="s24" d="m350.7 153c0-1.9 1.5-3.4 3.3-3.4 1.9 0 3.4 1.5 3.4 3.4 0 1.9-1.5 3.4-3.4 3.4-1.8 0-3.3-1.5-3.3-3.4z"/>
			<path id="&lt;Path&gt;" class="s24" d="m95.8 736.2c0 1.2-1.1 2.2-2.3 2.2-1.3 0-2.3-1-2.3-2.2 0-1.3 1-2.3 2.3-2.3 1.2 0 2.3 1 2.3 2.3z"/>
			<path id="&lt;Path&gt;" class="s24" d="m147.4 887.9c0 2.1-1.7 3.7-3.7 3.7-2.1 0-3.7-1.6-3.7-3.7 0-2 1.6-3.7 3.7-3.7 2 0 3.7 1.7 3.7 3.7z"/>
			<path id="&lt;Path&gt;" class="s24" d="m60.4 879.6c0 4.7-3.8 8.5-8.5 8.5-4.7 0-8.6-3.8-8.6-8.5 0-4.8 3.9-8.6 8.6-8.6 4.7 0 8.5 3.8 8.5 8.6z"/>
			<path id="&lt;Path&gt;" class="s24" d="m208.7 707.9c0 1.2-1 2.2-2.2 2.2-1.3 0-2.3-1-2.3-2.2 0-1.2 1-2.2 2.3-2.2 1.2 0 2.2 1 2.2 2.2z"/>
			<path id="&lt;Path&gt;" class="s24" d="m195.8 745.7c0 0.5-0.5 1-1 1-0.6 0-1-0.5-1-1 0-0.6 0.4-1 1-1 0.5 0 1 0.4 1 1z"/>
			<path id="&lt;Path&gt;" class="s24" d="m172.2 717.9c0 1.1-1 2-2.1 2-1.2 0-2.1-0.9-2.1-2 0-1.2 0.9-2.1 2.1-2.1 1.1 0 2.1 0.9 2.1 2.1z"/>
			<path id="&lt;Path&gt;" class="s24" d="m166.6 680.1c0 1.9-1.5 3.5-3.5 3.5-1.9 0-3.5-1.6-3.5-3.5 0-1.9 1.6-3.5 3.5-3.5 2 0 3.5 1.6 3.5 3.5z"/>
			<path id="&lt;Path&gt;" class="s24" d="m56.9 622.3c0 1-0.8 1.8-1.8 1.8-1 0-1.8-0.8-1.8-1.8 0-1 0.8-1.8 1.8-1.8 1 0 1.8 0.8 1.8 1.8z"/>
			<path id="&lt;Path&gt;" class="s24" d="m61.5 593.9c0 1.3-1.1 2.3-2.3 2.3-1.3 0-2.3-1-2.3-2.3 0-1.3 1-2.3 2.3-2.3 1.2 0 2.3 1 2.3 2.3z"/>
			<path id="&lt;Path&gt;" class="s24" d="m86.4 638.4c0 1.4-1.2 2.5-2.5 2.5-1.4 0-2.5-1.1-2.5-2.5 0-1.3 1.1-2.5 2.5-2.5 1.3 0 2.5 1.2 2.5 2.5z"/>
			<path id="&lt;Path&gt;" class="s24" d="m43.3 659.9c0 3-2.5 5.6-5.6 5.6-3.1 0-5.6-2.6-5.6-5.6 0-3.1 2.5-5.7 5.6-5.7 3.1 0 5.6 2.6 5.6 5.7z"/>
			<path id="&lt;Path&gt;" class="s24" d="m327.9 542.4c0 0.8-0.7 1.4-1.5 1.4-0.8 0-1.4-0.6-1.4-1.4 0-0.8 0.6-1.5 1.4-1.5 0.8 0 1.5 0.7 1.5 1.5z"/>
			<path id="&lt;Path&gt;" class="s24" d="m281.1 602.7c0 1.4-1.1 2.5-2.5 2.5-1.4 0-2.5-1.1-2.5-2.5 0-1.4 1.1-2.5 2.5-2.5 1.4 0 2.5 1.1 2.5 2.5z"/>
			<path id="&lt;Path&gt;" class="s24" d="m252.6 661.8c0 1-0.8 1.8-1.7 1.8-1 0-1.8-0.8-1.8-1.8 0-0.9 0.8-1.7 1.8-1.7 0.9 0 1.7 0.8 1.7 1.7z"/>
			<path id="&lt;Path&gt;" class="s24" d="m361.7 500.1c0 1.1-0.9 2-2 2-1.1 0-2.1-0.9-2.1-2 0-1.2 1-2.1 2.1-2.1 1.1 0 2 0.9 2 2.1z"/>
			<path id="&lt;Path&gt;" class="s24" d="m357.6 551q0-0.1-0.1-0.1-0.1 0-0.1 0.1 0 0.1 0.1 0.1 0.1 0 0.1-0.1z"/>
			<path id="&lt;Path&gt;" class="s24" d="m340.2 520c0 0.9-0.8 1.7-1.8 1.7-0.9 0-1.7-0.8-1.7-1.7 0-1 0.8-1.8 1.7-1.8 1 0 1.8 0.8 1.8 1.8z"/>
			<path id="&lt;Path&gt;" class="s24" d="m369.7 455.4c0 1.1-0.9 2-2.1 2-1.1 0-2-0.9-2-2 0-1.1 0.9-2 2-2 1.2 0 2.1 0.9 2.1 2z"/>
			<path id="&lt;Path&gt;" class="s24" d="m395.4 426.1c0 0.7-0.6 1.3-1.4 1.3-0.8 0-1.4-0.6-1.4-1.3 0-0.8 0.6-1.4 1.4-1.4 0.8 0 1.4 0.6 1.4 1.4z"/>
			<path id="&lt;Path&gt;" class="s24" d="m415.7 426.1c0 0.7-0.6 1.3-1.4 1.3-0.7 0-1.3-0.6-1.3-1.3 0-0.8 0.6-1.4 1.3-1.4 0.8 0 1.4 0.6 1.4 1.4z"/>
			<path id="&lt;Path&gt;" class="s24" d="m395.4 522.9c0 1.6-1.3 2.9-2.9 2.9-1.6 0-2.9-1.3-2.9-2.9 0-1.6 1.3-2.9 2.9-2.9 1.6 0 2.9 1.3 2.9 2.9z"/>
			<path id="&lt;Path&gt;" class="s24" d="m360.3 547.4c0 2-1.6 3.6-3.6 3.6-2 0-3.6-1.6-3.6-3.6 0-2 1.6-3.6 3.6-3.6 2 0 3.6 1.6 3.6 3.6z"/>
			<path id="&lt;Path&gt;" class="s24" d="m341.5 572.6c0 0.4-0.3 0.7-0.6 0.7-0.4 0-0.7-0.3-0.7-0.7 0-0.4 0.3-0.7 0.7-0.7 0.3 0 0.6 0.3 0.6 0.7z"/>
			<path id="&lt;Path&gt;" class="s24" d="m332.2 414.8c0 2-1.6 3.6-3.6 3.6-2 0-3.6-1.6-3.6-3.6 0-1.9 1.6-3.5 3.6-3.5 2 0 3.6 1.6 3.6 3.5z"/>
			<path id="&lt;Path&gt;" class="s24" d="m391.6 383.4c0 2.4-1.9 4.3-4.3 4.3-2.3 0-4.3-1.9-4.3-4.3 0-2.3 2-4.3 4.3-4.3 2.4 0 4.3 2 4.3 4.3z"/>
			<path id="&lt;Path&gt;" class="s24" d="m372.7 427.6c0 0.9-0.6 1.5-1.5 1.5-0.9 0-1.5-0.6-1.5-1.5 0-0.9 0.6-1.5 1.5-1.5 0.9 0 1.5 0.6 1.5 1.5z"/>
			<path id="&lt;Path&gt;" class="s24" d="m320.8 360.8c0 1-0.9 1.9-1.9 1.9-1.1 0-1.9-0.9-1.9-1.9 0-1.1 0.8-2 1.9-2 1 0 1.9 0.9 1.9 2z"/>
			<path id="&lt;Path&gt;" class="s24" d="m291.8 364.3c0 2-1.6 3.6-3.5 3.6-2 0-3.6-1.6-3.6-3.6 0-1.9 1.6-3.5 3.6-3.5 1.9 0 3.5 1.6 3.5 3.5z"/>
			<path id="&lt;Path&gt;" class="s24" d="m290.3 270.7c0 0.6-0.4 1-1 1-0.6 0-1-0.4-1-1 0-0.6 0.4-1 1-1 0.6 0 1 0.4 1 1z"/>
			<path id="&lt;Path&gt;" class="s24" d="m126.7 289.7c0 1.5-1.1 2.6-2.5 2.6-1.5 0-2.6-1.1-2.6-2.6 0-1.4 1.1-2.5 2.6-2.5 1.4 0 2.5 1.1 2.5 2.5z"/>
			<path id="&lt;Path&gt;" class="s24" d="m143.1 312.3c0-0.9-0.7-1.6-1.6-1.6-0.8 0-1.5 0.7-1.5 1.6 0 0.9 0.7 1.6 1.5 1.6 0.9 0 1.6-0.7 1.6-1.6z"/>
			<path id="&lt;Path&gt;" class="s24" d="m50.3 242.5c0 1.7-1.4 3.2-3.1 3.2-1.8 0-3.2-1.5-3.2-3.2 0-1.8 1.4-3.2 3.2-3.2 1.7 0 3.1 1.4 3.1 3.2z"/>
			<path id="&lt;Path&gt;" class="s24" d="m93.5 270.8c0 0.6-0.5 1.1-1.1 1.1-0.7 0-1.2-0.5-1.2-1.1 0-0.6 0.5-1.1 1.2-1.1 0.6 0 1.1 0.5 1.1 1.1z"/>
			<path id="&lt;Path&gt;" class="s24" d="m98.3 291c0 0.7-0.5 1.3-1.2 1.3-0.8 0-1.3-0.6-1.3-1.3 0-0.7 0.5-1.3 1.3-1.3 0.7 0 1.2 0.6 1.2 1.3z"/>
			<path id="&lt;Path&gt;" class="s24" d="m47.1 389.6c0 1-0.9 1.8-1.9 1.8-1 0-1.9-0.8-1.9-1.8 0-1 0.9-1.9 1.9-1.9 1 0 1.9 0.9 1.9 1.9z"/>
			<path id="&lt;Path&gt;" class="s24" d="m85.2 360.8c0 1-0.8 1.9-1.9 1.9-1.1 0-1.9-0.9-1.9-1.9 0-1.1 0.8-2 1.9-2 1.1 0 1.9 0.9 1.9 2z"/>
			<path id="&lt;Path&gt;" class="s24" d="m27.4 276.3c0 1.1-0.9 2-2.1 2-1.1 0-2-0.9-2-2 0-1.1 0.9-2 2-2 1.2 0 2.1 0.9 2.1 2z"/>
			<path id="&lt;Path&gt;" class="s24" d="m66.9 185.5c0 1.5-1.2 2.7-2.7 2.7-1.5 0-2.7-1.2-2.7-2.7 0-1.5 1.2-2.7 2.7-2.7 1.5 0 2.7 1.2 2.7 2.7z"/>
			<path id="&lt;Path&gt;" class="s24" d="m40.2 150.4c0-0.7-0.5-1.2-1.2-1.2-0.7 0-1.3 0.5-1.3 1.2 0 0.7 0.6 1.2 1.3 1.2 0.7 0 1.2-0.5 1.2-1.2z"/>
			<path id="&lt;Path&gt;" class="s24" d="m27.4 447.1c0-1.1-0.9-2-2.1-2-1.1 0-2 0.9-2 2 0 1.1 0.9 2 2 2 1.2 0 2.1-0.9 2.1-2z"/>
			<path id="&lt;Path&gt;" class="s24" d="m230.4 321.3c0 0.6-0.4 1-1 1-0.6 0-1.1-0.4-1.1-1 0-0.6 0.5-1.1 1.1-1.1 0.6 0 1 0.5 1 1.1z"/>
			<path id="&lt;Path&gt;" class="s24" d="m172.2 278.4c0 1.1-1 2.1-2.1 2.1-1.2 0-2.1-1-2.1-2.1 0-1.2 0.9-2.1 2.1-2.1 1.1 0 2.1 0.9 2.1 2.1z"/>
			<path id="&lt;Path&gt;" class="s24" d="m249.6 38.1c0 1.3-1.1 2.4-2.4 2.4-1.4 0-2.5-1.1-2.5-2.4 0-1.4 1.1-2.4 2.5-2.4 1.3 0 2.4 1 2.4 2.4z"/>
			<path id="&lt;Path&gt;" class="s24" d="m247.2 76.4c0 1.6-1.4 3-3 3-1.7 0-3-1.4-3-3 0-1.7 1.3-3 3-3 1.6 0 3 1.3 3 3z"/>
			<path id="&lt;Path&gt;" class="s24" d="m177 38.1c0 1.3-1.1 2.4-2.4 2.4-1.4 0-2.4-1.1-2.4-2.4 0-1.4 1-2.4 2.4-2.4 1.3 0 2.4 1 2.4 2.4z"/>
			<path id="&lt;Path&gt;" class="s24" d="m190.5 83.9c0 0.9-0.7 1.6-1.5 1.6-0.9 0-1.5-0.7-1.5-1.6 0-0.8 0.6-1.5 1.5-1.5 0.8 0 1.5 0.7 1.5 1.5z"/>
			<path id="&lt;Path&gt;" class="s24" d="m98.3 29.9c0 0.7-0.5 1.3-1.2 1.3-0.8 0-1.3-0.6-1.3-1.3 0-0.7 0.5-1.3 1.3-1.3 0.7 0 1.2 0.6 1.2 1.3z"/>
			<path id="&lt;Path&gt;" class="s24" d="m33.8 70.2c0 1.8-1.5 3.2-3.2 3.2-1.8 0-3.2-1.4-3.2-3.2 0-1.8 1.4-3.2 3.2-3.2 1.7 0 3.2 1.4 3.2 3.2z"/>
			<path id="&lt;Path&gt;" class="s24" d="m349.4 36.9c0 0.7-0.5 1.2-1.2 1.2-0.7 0-1.2-0.5-1.2-1.2 0-0.7 0.5-1.2 1.2-1.2 0.7 0 1.2 0.5 1.2 1.2z"/>
			<path id="&lt;Path&gt;" class="s24" d="m354 113.2c0 1-0.7 1.7-1.7 1.7-0.9 0-1.7-0.7-1.7-1.7 0-0.9 0.8-1.7 1.7-1.7 1 0 1.7 0.8 1.7 1.7z"/>
			<path id="&lt;Path&gt;" class="s24" d="m249.6 122.5c0-0.6-0.5-1.2-1.2-1.2-0.7 0-1.2 0.6-1.2 1.2 0 0.7 0.5 1.3 1.2 1.3 0.7 0 1.2-0.6 1.2-1.3z"/>
			<path id="&lt;Path&gt;" class="s24" d="m269.6 29.9c0 0.7-0.6 1.3-1.3 1.3-0.7 0-1.3-0.6-1.3-1.3 0-0.7 0.6-1.3 1.3-1.3 0.7 0 1.3 0.6 1.3 1.3z"/>
			<path id="&lt;Path&gt;" class="s24" d="m279.2 51c0 0.8-0.6 1.4-1.4 1.4-0.7 0-1.3-0.6-1.3-1.4 0-0.7 0.6-1.3 1.3-1.3 0.8 0 1.4 0.6 1.4 1.3z"/>
			<path id="&lt;Path&gt;" class="s24" d="m265.4 50.4c0 1.1-0.9 2-1.9 2-1.1 0-2-0.9-2-2 0-1.1 0.9-2 2-2 1 0 1.9 0.9 1.9 2z"/>
			<path id="&lt;Path&gt;" class="s24" d="m228.4 38.1c0 1.3-1.1 2.4-2.4 2.4-1.4 0-2.5-1.1-2.5-2.4 0-1.4 1.1-2.4 2.5-2.4 1.3 0 2.4 1 2.4 2.4z"/>
			<path id="&lt;Path&gt;" class="s24" d="m398.4 153.3c0 1.6-1.3 2.9-2.9 2.9-1.6 0-2.9-1.3-2.9-2.9 0-1.6 1.3-2.9 2.9-2.9 1.6 0 2.9 1.3 2.9 2.9z"/>
			<path id="&lt;Path&gt;" class="s24" d="m338.4 201.5c0 0.5-0.3 0.8-0.8 0.8-0.5 0-0.9-0.3-0.9-0.8 0-0.5 0.4-0.9 0.9-0.9 0.5 0 0.8 0.4 0.8 0.9z"/>
			<path id="&lt;Path&gt;" class="s24" d="m289.3 197.6c0 1.3-1 2.3-2.3 2.3-1.2 0-2.3-1-2.3-2.3 0-1.3 1.1-2.3 2.3-2.3 1.3 0 2.3 1 2.3 2.3z"/>
			<path id="&lt;Path&gt;" class="s24" d="m540.7 312.3c0 0.9-0.7 1.6-1.5 1.6-0.9 0-1.6-0.7-1.6-1.6 0-0.9 0.7-1.6 1.6-1.6 0.8 0 1.5 0.7 1.5 1.6z"/>
			<path id="&lt;Path&gt;" class="s24" d="m460.4 214.5c0 0.9-0.7 1.5-1.5 1.5-0.9 0-1.6-0.6-1.6-1.5 0-0.9 0.7-1.5 1.6-1.5 0.8 0 1.5 0.6 1.5 1.5z"/>
			<path id="&lt;Path&gt;" class="s24" d="m268.3 228.7c0 1.9-1.5 3.4-3.4 3.4-1.9 0-3.4-1.5-3.4-3.4 0-1.9 1.5-3.4 3.4-3.4 1.9 0 3.4 1.5 3.4 3.4z"/>
			<path id="&lt;Path&gt;" class="s24" d="m531.1 244.1c0 0.9-0.7 1.6-1.6 1.6-0.9 0-1.6-0.7-1.6-1.6 0-0.9 0.7-1.6 1.6-1.6 0.9 0 1.6 0.7 1.6 1.6z"/>
			<path id="&lt;Path&gt;" class="s24" d="m489.1 306.2c0 0.5-0.4 0.9-0.9 0.9-0.5 0-0.9-0.4-0.9-0.9 0-0.4 0.4-0.8 0.9-0.8 0.5 0 0.9 0.4 0.9 0.8z"/>
			<path id="&lt;Path&gt;" class="s24" d="m489.1 262.8c0 0.5-0.4 0.9-0.9 0.9-0.5 0-0.9-0.4-0.9-0.9 0-0.5 0.4-0.9 0.9-0.9 0.5 0 0.9 0.4 0.9 0.9z"/>
			<path id="&lt;Path&gt;" class="s24" d="m494.7 245.3c0 1.6-1.2 2.8-2.8 2.8-1.6 0-2.8-1.2-2.8-2.8 0-1.6 1.2-2.8 2.8-2.8 1.6 0 2.8 1.2 2.8 2.8z"/>
			<path id="&lt;Path&gt;" class="s24" d="m506.2 378.1c0 0.6-0.5 1-1.1 1-0.6 0-1-0.4-1-1 0-0.6 0.4-1.1 1-1.1 0.6 0 1.1 0.5 1.1 1.1z"/>
			<path id="&lt;Path&gt;" class="s24" d="m511.2 341.8c0 1.4-1.1 2.5-2.5 2.5-1.4 0-2.5-1.1-2.5-2.5 0-1.4 1.1-2.5 2.5-2.5 1.4 0 2.5 1.1 2.5 2.5z"/>
			<path id="&lt;Path&gt;" class="s24" d="m548.2 348c0 2.1-1.6 3.8-3.7 3.8-2.1 0-3.8-1.7-3.8-3.8 0-2 1.7-3.7 3.8-3.7 2.1 0 3.7 1.7 3.7 3.7z"/>
			<path id="&lt;Path&gt;" class="s24" d="m464.7 381.3c0 1.2-1 2.1-2.2 2.1-1.1 0-2.1-0.9-2.1-2.1 0-1.2 1-2.2 2.1-2.2 1.2 0 2.2 1 2.2 2.2z"/>
			<path id="&lt;Path&gt;" class="s24" d="m642.2 280.8c0 1.4-1.1 2.5-2.5 2.5-1.3 0-2.4-1.1-2.4-2.5 0-1.3 1.1-2.4 2.4-2.4 1.4 0 2.5 1.1 2.5 2.4z"/>
			<path id="&lt;Path&gt;" class="s24" d="m659.9 394.4c0 1.6-1.3 2.9-2.9 2.9-1.7 0-3-1.3-3-2.9 0-1.6 1.3-3 3-3 1.6 0 2.9 1.4 2.9 3z"/>
			<path id="&lt;Path&gt;" class="s24" d="m689.5 346.2c0 1-0.8 1.8-1.8 1.8-1.1 0-1.9-0.8-1.9-1.8 0-1.1 0.8-1.9 1.9-1.9 1 0 1.8 0.8 1.8 1.9z"/>
			<path id="&lt;Path&gt;" class="s24" d="m573.2 457.4c0 1.1-0.8 1.9-1.9 1.9-1.1 0-2-0.8-2-1.9 0-1.1 0.9-2 2-2 1.1 0 1.9 0.9 1.9 2z"/>
			<path id="&lt;Path&gt;" class="s24" d="m579.1 394.4c0 1.6-1.3 2.9-2.9 2.9-1.7 0-3-1.3-3-2.9 0-1.6 1.3-3 3-3 1.6 0 2.9 1.4 2.9 3z"/>
			<path id="&lt;Path&gt;" class="s24" d="m589.4 498.4c0 0.9-0.7 1.7-1.6 1.7-1 0-1.7-0.8-1.7-1.7 0-0.9 0.7-1.7 1.7-1.7 0.9 0 1.6 0.8 1.6 1.7z"/>
			<path id="&lt;Path&gt;" class="s24" d="m497.7 426.1c0 0.8-0.7 1.5-1.5 1.5-0.8 0-1.5-0.7-1.5-1.5 0-0.8 0.7-1.4 1.5-1.4 0.8 0 1.5 0.6 1.5 1.4z"/>
			<path id="&lt;Path&gt;" class="s24" d="m515.7 504.4c0 1.2-1 2.2-2.2 2.2-1.3 0-2.3-1-2.3-2.2 0-1.3 1-2.3 2.3-2.3 1.2 0 2.2 1 2.2 2.3z"/>
			<path id="&lt;Path&gt;" class="s24" d="m639.5 503.3c0 0.6-0.5 1.1-1.1 1.1-0.6 0-1.1-0.5-1.1-1.1 0-0.7 0.5-1.2 1.1-1.2 0.6 0 1.1 0.5 1.1 1.2z"/>
			<path id="&lt;Path&gt;" class="s24" d="m632.7 543.5c0 1.4-1.1 2.5-2.5 2.5-1.4 0-2.6-1.1-2.6-2.5 0-1.4 1.2-2.6 2.6-2.6 1.4 0 2.5 1.2 2.5 2.6z"/>
			<path id="&lt;Path&gt;" class="s24" d="m599.3 557.4c0 1.2-1 2.2-2.2 2.2-1.2 0-2.2-1-2.2-2.2 0-1.2 1-2.2 2.2-2.2 1.2 0 2.2 1 2.2 2.2z"/>
			<path id="&lt;Path&gt;" class="s24" d="m576.3 697.6c0 0.7 0.7 1.4 1.4 1.4 0.8 0 1.4-0.7 1.4-1.4 0-0.8-0.6-1.4-1.4-1.4-0.7 0-1.4 0.6-1.4 1.4z"/>
			<path id="&lt;Path&gt;" class="s24" d="m525.1 604c0 0.7-0.6 1.2-1.3 1.2-0.6 0-1.2-0.5-1.2-1.2 0-0.7 0.6-1.3 1.2-1.3 0.7 0 1.3 0.6 1.3 1.3z"/>
			<path id="&lt;Path&gt;" class="s24" d="m575.5 595.1c0 0.6-0.5 1.1-1.1 1.1-0.7 0-1.2-0.5-1.2-1.1 0-0.7 0.5-1.2 1.2-1.2 0.6 0 1.1 0.5 1.1 1.2z"/>
			<path id="&lt;Path&gt;" class="s24" d="m509 660.6c0 1.4-1.1 2.5-2.5 2.5-1.4 0-2.5-1.1-2.5-2.5 0-1.3 1.1-2.4 2.5-2.4 1.4 0 2.5 1.1 2.5 2.4z"/>
			<path id="&lt;Path&gt;" class="s24" d="m707.8 725.6c0 0.9-0.8 1.6-1.7 1.6-0.9 0-1.6-0.7-1.6-1.6 0-0.9 0.7-1.6 1.6-1.6 0.9 0 1.7 0.7 1.7 1.6z"/>
			<path id="&lt;Path&gt;" class="s24" d="m662.4 639.7c0 0.7-0.6 1.2-1.3 1.2-0.6 0-1.2-0.5-1.2-1.2 0-0.7 0.6-1.3 1.2-1.3 0.7 0 1.3 0.6 1.3 1.3z"/>
			<path id="&lt;Path&gt;" class="s24" d="m662.9 688.7c0 0.8-0.7 1.5-1.5 1.5-0.8 0-1.5-0.7-1.5-1.5 0-0.8 0.7-1.5 1.5-1.5 0.8 0 1.5 0.7 1.5 1.5z"/>
			<path id="&lt;Path&gt;" class="s24" d="m573.2 631.2c0 1.1-0.8 2-1.9 2-1.1 0-2-0.9-2-2 0-1.1 0.9-1.9 2-1.9 1.1 0 1.9 0.8 1.9 1.9z"/>
			<path id="&lt;Path&gt;" class="s24" d="m491.9 574.2c0 1.3-1 2.3-2.3 2.3-1.3 0-2.3-1-2.3-2.3 0-1.2 1-2.3 2.3-2.3 1.3 0 2.3 1.1 2.3 2.3z"/>
			<path id="&lt;Path&gt;" class="s24" d="m643 756.3c0 1-0.8 1.8-1.7 1.8-1 0-1.8-0.8-1.8-1.8 0-0.9 0.8-1.7 1.8-1.7 0.9 0 1.7 0.8 1.7 1.7z"/>
			<path id="&lt;Path&gt;" class="s24" d="m647.6 853.8c0 1.2-1 2.2-2.3 2.2-1.2 0-2.3-1-2.3-2.2 0-1.3 1.1-2.3 2.3-2.3 1.3 0 2.3 1 2.3 2.3z"/>
			<path id="&lt;Path&gt;" class="s24" d="m640.8 886.2c0 0.9-0.8 1.7-1.8 1.7-0.9 0-1.7-0.8-1.7-1.7 0-1 0.8-1.8 1.7-1.8 1 0 1.8 0.8 1.8 1.8z"/>
			<path id="&lt;Path&gt;" class="s24" d="m569.3 828c0 1.4-1.1 2.6-2.6 2.6-1.5 0-2.7-1.2-2.7-2.6 0-1.5 1.2-2.7 2.7-2.7 1.5 0 2.6 1.2 2.6 2.7z"/>
			<path id="&lt;Path&gt;" class="s24" d="m566.7 866.4c0 0.7-0.6 1.3-1.3 1.3-0.8 0-1.4-0.6-1.4-1.3 0-0.8 0.6-1.4 1.4-1.4 0.7 0 1.3 0.6 1.3 1.4z"/>
			<path id="&lt;Path&gt;" class="s24" d="m508.4 754.1c0 1.2-0.9 2.2-2.2 2.2-1.2 0-2.2-1-2.2-2.2 0-1.2 1-2.2 2.2-2.2 1.3 0 2.2 1 2.2 2.2z"/>
			<path id="&lt;Path&gt;" class="s24" d="m504 836.6c0 1.8-1.4 3.2-3.2 3.2-1.7 0-3.1-1.4-3.1-3.2 0-1.7 1.4-3.2 3.1-3.2 1.8 0 3.2 1.5 3.2 3.2z"/>
			<path id="&lt;Path&gt;" class="s24" d="m549.7 766.4c0 1.4-1.2 2.6-2.6 2.6-1.5 0-2.6-1.2-2.6-2.6 0-1.4 1.1-2.6 2.6-2.6 1.4 0 2.6 1.2 2.6 2.6z"/>
			<path id="&lt;Path&gt;" class="s24" d="m411.4 798.4c0 2-1.7 3.7-3.7 3.7-2.1 0-3.7-1.7-3.7-3.7 0-2 1.6-3.7 3.7-3.7 2 0 3.7 1.7 3.7 3.7z"/>
			<path id="&lt;Path&gt;" class="s24" d="m436.9 890.1c0 0.9-0.6 1.5-1.5 1.5-0.8 0-1.5-0.6-1.5-1.5 0-0.8 0.7-1.5 1.5-1.5 0.9 0 1.5 0.7 1.5 1.5z"/>
			<path id="&lt;Path&gt;" class="s24" d="m461.7 858.6c0 0.4-0.3 0.7-0.7 0.7-0.3 0-0.6-0.3-0.6-0.7 0-0.3 0.3-0.6 0.6-0.6 0.4 0 0.7 0.3 0.7 0.6z"/>
			<path id="&lt;Path&gt;" class="s24" d="m395.4 841.7c0 1-0.9 1.9-1.9 1.9-1 0-1.9-0.9-1.9-1.9 0-1 0.9-1.9 1.9-1.9 1 0 1.9 0.9 1.9 1.9z"/>
			<path id="&lt;Path&gt;" class="s24" d="m441.2 955.7c0 1.6-1.3 2.9-2.9 2.9-1.6 0-2.9-1.3-2.9-2.9 0-1.6 1.3-2.9 2.9-2.9 1.6 0 2.9 1.3 2.9 2.9z"/>
			<path id="&lt;Path&gt;" class="s24" d="m601.1 931.8c0 1.7-1.4 3.1-3.1 3.1-1.7 0-3.1-1.4-3.1-3.1 0-1.7 1.4-3.1 3.1-3.1 1.7 0 3.1 1.4 3.1 3.1z"/>
			<path id="&lt;Path&gt;" class="s24" d="m589.4 967.2c0 0.9-0.7 1.6-1.6 1.6-1 0-1.7-0.7-1.7-1.6 0-1 0.7-1.7 1.7-1.7 0.9 0 1.6 0.7 1.6 1.7z"/>
			<path id="&lt;Path&gt;" class="s24" d="m552.3 951.5c0 0.7-0.6 1.3-1.3 1.3-0.8 0-1.3-0.6-1.3-1.3 0-0.7 0.5-1.3 1.3-1.3 0.7 0 1.3 0.6 1.3 1.3z"/>
			<path id="&lt;Path&gt;" class="s24" d="m702.5 920.4c0 2.4-2 4.3-4.4 4.3-2.4 0-4.3-1.9-4.3-4.3 0-2.5 1.9-4.4 4.3-4.4 2.4 0 4.4 1.9 4.4 4.4z"/>
			<path id="&lt;Path&gt;" class="s24" d="m777.2 983.7c0 1.8-1.5 3.2-3.3 3.2-1.8 0-3.3-1.4-3.3-3.2 0-1.8 1.5-3.3 3.3-3.3 1.8 0 3.3 1.5 3.3 3.3z"/>
			<path id="&lt;Path&gt;" class="s24" d="m1009.3 860.5c0 2.5-2 4.5-4.5 4.5-2.5 0-4.6-2-4.6-4.5 0-2.5 2.1-4.5 4.6-4.5 2.5 0 4.5 2 4.5 4.5z"/>
			<path id="&lt;Path&gt;" class="s24" d="m945.8 967.2c0 0.9-0.7 1.6-1.7 1.6-0.9 0-1.6-0.7-1.6-1.6 0-1 0.7-1.7 1.6-1.7 1 0 1.7 0.7 1.7 1.7z"/>
			<path id="&lt;Path&gt;" class="s24" d="m945.8 948.3c0 1-0.7 1.7-1.7 1.7-0.9 0-1.6-0.7-1.6-1.7 0-0.9 0.7-1.6 1.6-1.6 1 0 1.7 0.7 1.7 1.6z"/>
			<path id="&lt;Path&gt;" class="s24" d="m814.6 970.2c0 0.7-0.6 1.3-1.3 1.3-0.8 0-1.4-0.6-1.4-1.3 0-0.8 0.6-1.4 1.4-1.4 0.7 0 1.3 0.6 1.3 1.4z"/>
			<path id="&lt;Path&gt;" class="s24" d="m784.8 959.5c0 2.1-1.7 3.9-3.8 3.9-2.1 0-3.8-1.8-3.8-3.9 0-2.1 1.7-3.8 3.8-3.8 2.1 0 3.8 1.7 3.8 3.8z"/>
			<path id="&lt;Path&gt;" class="s24" d="m710.3 955.7c0 1.6-1.3 2.9-2.9 2.9-1.6 0-2.9-1.3-2.9-2.9 0-1.6 1.3-2.9 2.9-2.9 1.6 0 2.9 1.3 2.9 2.9z"/>
			<path id="&lt;Path&gt;" class="s24" d="m1020.9 720.9c0 1.7-1.3 3.1-3 3.1-1.7 0-3.1-1.4-3.1-3.1 0-1.7 1.4-3 3.1-3 1.7 0 3 1.3 3 3z"/>
			<path id="&lt;Path&gt;" class="s24" d="m1055.7 699.7c0 2-1.5 3.6-3.5 3.6-2 0-3.5-1.6-3.5-3.6 0-1.9 1.5-3.5 3.5-3.5 2 0 3.5 1.6 3.5 3.5z"/>
			<path id="&lt;Path&gt;" class="s24" d="m1020.9 765.3c0 0.9-0.7 1.6-1.5 1.6-0.9 0-1.5-0.7-1.5-1.6 0-0.8 0.6-1.5 1.5-1.5 0.8 0 1.5 0.7 1.5 1.5z"/>
			<path id="&lt;Path&gt;" class="s24" d="m1000.2 748.3c0 2-1.6 3.6-3.6 3.6-2 0-3.6-1.6-3.6-3.6 0-2 1.6-3.6 3.6-3.6 2 0 3.6 1.6 3.6 3.6z"/>
			<path id="&lt;Path&gt;" class="s24" d="m906.8 531.4c0 1.8-1.5 3.3-3.3 3.3-1.8 0-3.2-1.5-3.2-3.3 0-1.8 1.4-3.2 3.2-3.2 1.8 0 3.3 1.4 3.3 3.2z"/>
			<path id="&lt;Path&gt;" class="s24" d="m908.1 572.6c0 0.4-0.3 0.7-0.6 0.7-0.4 0-0.7-0.3-0.7-0.7 0-0.4 0.3-0.7 0.7-0.7 0.3 0 0.6 0.3 0.6 0.7z"/>
			<path id="&lt;Path&gt;" class="s24" d="m880.7 562.7c0 1.7-1.4 3.1-3.1 3.1-1.7 0-3.1-1.4-3.1-3.1 0-1.7 1.4-3.1 3.1-3.1 1.7 0 3.1 1.4 3.1 3.1z"/>
			<path id="&lt;Path&gt;" class="s24" d="m932.4 539.4c0 0.8-0.7 1.5-1.6 1.5-0.9 0-1.6-0.7-1.6-1.5 0-0.9 0.7-1.6 1.6-1.6 0.9 0 1.6 0.7 1.6 1.6z"/>
			<path id="&lt;Path&gt;" class="s24" d="m903.5 665.6c0 1.1-0.9 2.1-2 2.1-1.2 0-2.1-1-2.1-2.1 0-1.1 0.9-2 2.1-2 1.1 0 2 0.9 2 2z"/>
			<path id="&lt;Path&gt;" class="s24" d="m835.5 627.7c0 0.8-0.7 1.6-1.6 1.6-0.9 0-1.6-0.8-1.6-1.6 0-0.9 0.7-1.7 1.6-1.7 0.9 0 1.6 0.8 1.6 1.7z"/>
			<path id="&lt;Path&gt;" class="s24" d="m1013.6 502.2c0 1.2-1 2.2-2.2 2.2-1.2 0-2.1-1-2.1-2.2 0-1.2 0.9-2.1 2.1-2.1 1.2 0 2.2 0.9 2.2 2.1z"/>
			<path id="&lt;Path&gt;" class="s24" d="m807.3 431c0 1.9-1.5 3.5-3.4 3.5-1.9 0-3.4-1.6-3.4-3.5 0-1.9 1.5-3.4 3.4-3.4 1.9 0 3.4 1.5 3.4 3.4z"/>
			<path id="&lt;Path&gt;" class="s24" d="m806.7 500.7c0 0.8-0.6 1.4-1.4 1.4-0.8 0-1.4-0.6-1.4-1.4 0-0.8 0.6-1.4 1.4-1.4 0.8 0 1.4 0.6 1.4 1.4z"/>
			<path id="&lt;Path&gt;" class="s24" d="m754.5 495.8c0 1.2-1 2.2-2.3 2.2-1.2 0-2.2-1-2.2-2.2 0-1.2 1-2.2 2.2-2.2 1.3 0 2.3 1 2.3 2.2z"/>
			<path id="&lt;Path&gt;" class="s24" d="m807.3 308.8c0 1-0.8 1.8-1.7 1.8-0.9 0-1.7-0.8-1.7-1.8 0-0.9 0.8-1.7 1.7-1.7 0.9 0 1.7 0.8 1.7 1.7z"/>
			<path id="&lt;Path&gt;" class="s24" d="m971.6 266.2c0 1.4-1.1 2.6-2.5 2.6-1.5 0-2.6-1.2-2.6-2.6 0-1.4 1.1-2.5 2.6-2.5 1.4 0 2.5 1.1 2.5 2.5z"/>
			<path id="&lt;Path&gt;" class="s24" d="m885.8 214.5c0 0.9-0.7 1.5-1.6 1.5-0.8 0-1.5-0.6-1.5-1.5 0-0.9 0.7-1.5 1.5-1.5 0.9 0 1.6 0.6 1.6 1.5z"/>
			<path id="&lt;Path&gt;" class="s24" d="m863.2 243.1c0 1.2-1.1 2.2-2.3 2.2-1.2 0-2.2-1-2.2-2.2 0-1.3 1-2.3 2.2-2.3 1.2 0 2.3 1 2.3 2.3z"/>
			<path id="&lt;Path&gt;" class="s24" d="m854.3 225c0 2.2-1.8 4-4 4-2.2 0-4-1.8-4-4 0-2.2 1.8-3.9 4-3.9 2.2 0 4 1.7 4 3.9z"/>
			<path id="&lt;Path&gt;" class="s24" d="m1008.4 97c0 1.7-1.4 3.1-3.1 3.1-1.7 0-3.1-1.4-3.1-3.1 0-1.7 1.4-3.1 3.1-3.1 1.7 0 3.1 1.4 3.1 3.1z"/>
			<path id="&lt;Path&gt;" class="s24" d="m1015.6 217.1c0 0.5-0.4 1-1 1-0.6 0-1-0.5-1-1 0-0.6 0.4-1.1 1-1.1 0.6 0 1 0.5 1 1.1z"/>
			<path id="&lt;Path&gt;" class="s24" d="m957.4 136.9c0 1.7-1.4 3.1-3 3.1-1.7 0-3.1-1.4-3.1-3.1 0-1.7 1.4-3.1 3.1-3.1 1.6 0 3 1.4 3 3.1z"/>
			<path id="&lt;Path&gt;" class="s24" d="m1038.9 326.3c0 1.3-1.1 2.4-2.3 2.4-1.3 0-2.4-1.1-2.4-2.4 0-1.3 1.1-2.3 2.4-2.3 1.2 0 2.3 1 2.3 2.3z"/>
			<path id="&lt;Path&gt;" class="s24" d="m1015.2 243.3c0 0.4-0.4 0.8-0.8 0.8-0.5 0-0.8-0.4-0.8-0.8 0-0.5 0.3-0.8 0.8-0.8 0.4 0 0.8 0.3 0.8 0.8z"/>
			<path id="&lt;Path&gt;" class="s24" d="m1034 234.2c0 1.1-1 2.1-2.1 2.1-1.2 0-2.1-1-2.1-2.1 0-1.2 0.9-2.1 2.1-2.1 1.1 0 2.1 0.9 2.1 2.1z"/>
			<path id="&lt;Path&gt;" class="s24" d="m1036.6 267.3c0 0.7-0.6 1.2-1.2 1.2-0.7 0-1.2-0.5-1.2-1.2 0-0.6 0.5-1.1 1.2-1.1 0.6 0 1.2 0.5 1.2 1.1z"/>
			<path id="&lt;Path&gt;" class="s24" d="m982.3 349.9c0 1.1-0.8 1.9-1.8 1.9-1.1 0-1.9-0.8-1.9-1.9 0-1 0.8-1.9 1.9-1.9 1 0 1.8 0.9 1.8 1.9z"/>
			<path id="&lt;Path&gt;" class="s24" d="m996.4 407.8c0 0.9-0.8 1.7-1.7 1.7-0.9 0-1.7-0.8-1.7-1.7 0-0.9 0.8-1.7 1.7-1.7 0.9 0 1.7 0.8 1.7 1.7z"/>
			<path id="&lt;Path&gt;" class="s24" d="m1024 384.9c0 0.8-0.7 1.5-1.5 1.5-0.9 0-1.5-0.7-1.5-1.5 0-0.8 0.6-1.5 1.5-1.5 0.8 0 1.5 0.7 1.5 1.5z"/>
			<path id="&lt;Path&gt;" class="s24" d="m1026.2 452.8c0 1.5-1.2 2.6-2.6 2.6-1.5 0-2.6-1.1-2.6-2.6 0-1.4 1.1-2.6 2.6-2.6 1.4 0 2.6 1.2 2.6 2.6z"/>
			<path id="&lt;Path&gt;" class="s24" d="m1199.1 432.7c0 1-0.8 1.8-1.7 1.8-1 0-1.8-0.8-1.8-1.8 0-0.9 0.8-1.7 1.8-1.7 0.9 0 1.7 0.8 1.7 1.7z"/>
			<path id="&lt;Path&gt;" class="s24" d="m1234 579.8c0 1.9-1.4 3.4-3.3 3.4-1.8 0-3.3-1.5-3.3-3.4 0-1.8 1.5-3.3 3.3-3.3 1.9 0 3.3 1.5 3.3 3.3z"/>
			<path id="&lt;Path&gt;" class="s24" d="m1222.1 562.7c0 1.7-1.4 3.1-3.1 3.1-1.7 0-3.1-1.4-3.1-3.1 0-1.7 1.4-3.1 3.1-3.1 1.7 0 3.1 1.4 3.1 3.1z"/>
			<path id="&lt;Path&gt;" class="s24" d="m1202.2 607.7c0 1.3-1.1 2.4-2.4 2.4-1.4 0-2.4-1.1-2.4-2.4 0-1.4 1-2.5 2.4-2.5 1.3 0 2.4 1.1 2.4 2.5z"/>
			<path id="&lt;Path&gt;" class="s24" d="m1164.1 621.5c0 1.5-1.2 2.7-2.7 2.7-1.5 0-2.7-1.2-2.7-2.7 0-1.5 1.2-2.7 2.7-2.7 1.5 0 2.7 1.2 2.7 2.7z"/>
			<path id="&lt;Path&gt;" class="s24" d="m1379.1 567.6c0 0.9-0.8 1.7-1.7 1.7-1 0-1.8-0.8-1.8-1.7 0-1 0.8-1.8 1.8-1.8 0.9 0 1.7 0.8 1.7 1.8z"/>
			<path id="&lt;Path&gt;" class="s24" d="m1398 485.2c0 0.8-0.7 1.5-1.5 1.5-0.8 0-1.5-0.7-1.5-1.5 0-0.8 0.7-1.5 1.5-1.5 0.8 0 1.5 0.7 1.5 1.5z"/>
			<path id="&lt;Path&gt;" class="s24" d="m1372.4 528.8c0 0.3-0.3 0.6-0.6 0.6-0.4 0-0.6-0.3-0.6-0.6 0-0.3 0.2-0.6 0.6-0.6 0.3 0 0.6 0.3 0.6 0.6z"/>
			<path id="&lt;Path&gt;" class="s24" d="m1478.9 585c0 1-0.8 1.8-1.8 1.8-1 0-1.8-0.8-1.8-1.8 0-1 0.8-1.8 1.8-1.8 1 0 1.8 0.8 1.8 1.8z"/>
			<path id="&lt;Path&gt;" class="s24" d="m1474.1 500.1c0 1.1-0.9 2-2.1 2-1.1 0-2-0.9-2-2 0-1.2 0.9-2.1 2-2.1 1.2 0 2.1 0.9 2.1 2.1z"/>
			<path id="&lt;Path&gt;" class="s24" d="m1339.4 449.8c0 1.7-1.4 3-3.1 3-1.7 0-3.1-1.3-3.1-3 0-1.7 1.4-3.1 3.1-3.1 1.7 0 3.1 1.4 3.1 3.1z"/>
			<path id="&lt;Path&gt;" class="s24" d="m1474.1 381.2c0 1.1-0.9 2-2.1 2-1.1 0-2-0.9-2-2 0-1.1 0.9-2.1 2-2.1 1.2 0 2.1 1 2.1 2.1z"/>
			<path id="&lt;Path&gt;" class="s24" d="m1475.6 31.3c0 0.9-0.8 1.7-1.8 1.7-1 0-1.8-0.8-1.8-1.7 0-1 0.8-1.8 1.8-1.8 1 0 1.8 0.8 1.8 1.8z"/>
			<path id="&lt;Path&gt;" class="s24" d="m1454.8 49.5c0 1.7-1.3 3.1-3 3.1-1.6 0-3-1.4-3-3.1 0-1.6 1.4-3 3-3 1.7 0 3 1.4 3 3z"/>
			<path id="&lt;Path&gt;" class="s24" d="m1448.8 19.3c0 1.3-1 2.2-2.2 2.2-1.2 0-2.2-0.9-2.2-2.2 0-1.2 1-2.2 2.2-2.2 1.2 0 2.2 1 2.2 2.2z"/>
			<path id="&lt;Path&gt;" class="s24" d="m1044.8 30.4c0 0.5-0.4 0.9-0.9 0.9-0.5 0-0.9-0.4-0.9-0.9 0-0.5 0.4-0.9 0.9-0.9 0.5 0 0.9 0.4 0.9 0.9z"/>
			<path id="&lt;Path&gt;" class="s24" d="m1022.5 176.7c0 0.4-0.4 0.7-0.8 0.7-0.4 0-0.7-0.3-0.7-0.7 0-0.5 0.3-0.8 0.7-0.8 0.4 0 0.8 0.3 0.8 0.8z"/>
			<path id="&lt;Path&gt;" class="s24" d="m982.3 99.2c0 3-2.4 5.4-5.3 5.4-3 0-5.4-2.4-5.4-5.4 0-2.9 2.4-5.3 5.4-5.3 2.9 0 5.3 2.4 5.3 5.3z"/>
			<path id="&lt;Path&gt;" class="s24" d="m976.4 224.2c0 1.7-1.4 3.1-3.1 3.1-1.7 0-3.1-1.4-3.1-3.1 0-1.7 1.4-3.1 3.1-3.1 1.7 0 3.1 1.4 3.1 3.1z"/>
			<path id="&lt;Path&gt;" class="s24" d="m887.5 311.4c0 0.5-0.4 0.9-0.9 0.9-0.5 0-0.8-0.4-0.8-0.9 0-0.5 0.3-0.8 0.8-0.8 0.5 0 0.9 0.3 0.9 0.8z"/>
			<path id="&lt;Path&gt;" class="s24" d="m738.4 271.7c0 1.5-1.3 2.8-2.9 2.8-1.5 0-2.8-1.3-2.8-2.8 0-1.6 1.3-2.9 2.8-2.9 1.6 0 2.9 1.3 2.9 2.9z"/>
		</g>
	</g>
</svg>